<?xml version="1.0" encoding="UTF-8"?>
<svg id="Capa_2" data-name="Capa 2" xmlns="http://www.w3.org/2000/svg" viewBox="0 0 401.55 401.66">
  <defs>
    <style>
      .cls-1 {
        fill: #4a5942;
        stroke-width: 0px;
      }
    </style>
  </defs>
  <g id="Capa_1-2" data-name="Capa 1">
    <g>
      <path class="cls-1" d="M10.07,398.66c-.77,0-1.39-.02-1.95-.06-3.15-.25-5.17-2.24-5.12-5.06.04-2.86,2.12-4.83,5.17-4.9,2.79-.06,5.81-.09,9.5-.09,2.31,0,4.64.01,7,.02,2.43.01,4.9.02,7.42.02h3V44.45c0-8.62.69-9.32,9.28-9.32h71.05s0-9.37,0-9.37c0-4.9,0-9.75,0-14.6.01-7.01,1.12-8.15,7.93-8.15,26.13,0,52.25,0,78.38,0h76.22c7.1,0,8.17,1.11,8.18,8.42,0,4.5,0,9,0,13.71v10s44.31,0,44.31,0c9.34,0,18.67,0,28.01,0,6.89,0,8.01,1.14,8.01,8.08,0,89.41,0,178.83,0,268.24v77.11h3c2.48,0,4.88,0,7.25,0,2.27,0,4.49,0,6.69,0,2.96,0,5.87,0,8.78.04,2.26.02,4.1.65,5.19,1.77.82.84,1.21,1.97,1.18,3.34-.1,4.37-4.37,4.89-6.21,4.91-2.86.04-5.72.04-8.57.04-2.08,0-4.15,0-6.23-.01-2.08,0-4.16-.01-6.24-.01H12.9c-.49,0-.97,0-1.46.01-.46,0-.92.01-1.37.01ZM261.72,276.12c7.25,0,8.34,1.08,8.35,8.24,0,22.93,0,45.87,0,68.81v35.1s85.99,0,85.99,0V45.59h-69.92v38.6c0,27.07,0,54.14,0,81.21,0,7.22-1.08,8.31-8.29,8.31h-75.42s-78.67,0-78.67,0c-7.25,0-8.34-1.08-8.34-8.25,0-27.25,0-54.51,0-81.76v-38.27s-69.92,0-69.92,0v342.74h85.99v-30.01c0-24.68,0-49.21,0-73.74,0-7.22,1.08-8.31,8.27-8.31h60.98s60.98,0,60.98,0ZM141.9,388.17h53.58v-101.76h-53.58v101.76ZM206.17,388.16h53.56v-101.76h-53.56v101.76ZM125.89,163.38h149.97V13.43H125.89v149.95Z"/>
      <path class="cls-1" d="M139.48,238.01c-1.04,0-1.89-.02-2.68-.07-3.22-.19-5.24-2.08-5.29-4.93-.04-2.84,2.01-4.9,5-5.02,2.53-.1,5.18-.16,7.87-.16,2.55,0,5.22.05,7.96.14,3.08.1,5.17,2.07,5.21,4.9.05,2.92-2.12,4.91-5.52,5.07-.85.04-1.77.06-2.88.06-.84,0-1.68-.01-2.52-.02-.83-.01-1.66-.02-2.48-.02h0c-.85,0-1.63.01-2.41.02-.75.01-1.51.02-2.26.02Z"/>
      <path class="cls-1" d="M251.69,238c-1.16,0-2.11-.04-2.99-.11-2.79-.24-4.73-2.28-4.72-4.97.01-2.72,1.97-4.78,4.66-4.9,2.79-.13,5.62-.19,8.39-.19s5.63.07,8.39.2c2.68.13,4.62,2.2,4.61,4.93-.01,2.64-1.97,4.64-4.88,4.99-.15.02-.29.02-.44.02-.07,0-4.74,0-4.74,0l-3-.04c-.9,0-1.8.02-2.71.04-.86.02-1.72.04-2.58.04Z"/>
      <path class="cls-1" d="M200.75,125.48c-3.07,0-4.93-2.23-4.98-5.97-.07-5.18-.06-10.34-.04-15.8,0-2.39.01-4.83.01-7.32v-3h-3c-2.41,0-4.8,0-7.16.02-2.32,0-4.62.02-6.91.02-3.5,0-6.37-.02-9.04-.06-2.28-.04-4.19-.89-5.25-2.36-.8-1.1-1-2.42-.58-3.8.84-2.73,2.57-3.89,5.79-3.89,3.15.02,6.22.03,9.32.03h16.83s0-9.86,0-9.86c0-5.06,0-9.99,0-14.92.02-4.86,1.69-7.33,4.97-7.33h.16c3.24.08,4.9,2.49,4.92,7.19.02,4.92.02,9.84.01,14.93v9.98s16.45,0,16.45,0c2.83,0,5.62,0,8.42.02,7.08.03,7.18,3.7,7.21,4.9.04,1.39-.33,2.45-1.11,3.26-1.17,1.21-3.38,1.88-6.2,1.89-2.74.01-5.49.01-8.28.01h-16.5s0,20.5,0,20.5c0,.58,0,1.17,0,1.75,0,1.27.02,2.47-.02,3.68-.05,1.84-.65,6.11-4.99,6.15h-.06Z"/>
    </g>
  </g>
</svg>