<?xml version="1.0" encoding="UTF-8"?>
<svg id="Capa_2" data-name="Capa 2" xmlns="http://www.w3.org/2000/svg" viewBox="0 0 512 375.46">
  <defs>
    <style>
      .cls-1 {
        fill: #4a5942;
        stroke-width: 0px;
      }
    </style>
  </defs>
  <g id="Capa_1-2" data-name="Capa 1">
    <g>
      <path class="cls-1" d="M500.04,372.46c-81.09-.05-163.38-.08-244.59-.08s-162.65.03-243.5.08c-4.39,0-6.99-.95-8.96-3.34v-4.12c1.84-2.65,4.35-3.79,8.25-3.79.28,0,.56,0,.84.02,2.56.1,5.3.15,8.64.15,2.14,0,4.3-.02,6.46-.04,2.16-.02,4.33-.04,6.51-.04h3v-227.87h-3c-2.27,0-4.5-.02-6.71-.04-2.18-.02-4.34-.04-6.48-.04-3.38,0-6.16.06-8.73.18-.31.01-.62.02-.92.02-3.59,0-5.99-1.03-7.85-3.41v-4.15c4.92-7.69,9.87-15.37,14.81-23.05,12.44-19.31,25.3-39.29,37.56-59.19,6.63-10.77,14.81-15.37,27.36-15.37h.45c22.79.2,44.94.23,63.6.23,8.3,0,16.61,0,24.91-.01,8.3,0,16.6-.01,24.91-.01,8.86,0,17.72,0,26.58.03,4.87,0,8.34-1.53,11.32-4.97,5.3-6.12,11.02-12.08,16.55-17.86,1.76-1.84,3.43-2.77,4.96-2.77s3.2.93,4.97,2.76c5.97,6.21,11.33,11.84,16.55,17.85,2.99,3.45,6.46,4.98,11.25,4.98,9.03-.02,18-.03,26.97-.03,8.24,0,16.47,0,24.71.01,8.24,0,16.48.01,24.72.01,18.69,0,40.87-.03,63.66-.23h.45c12.54,0,20.72,4.6,27.35,15.37,12.25,19.9,25.12,39.87,37.56,59.19,4.95,7.68,9.89,15.36,14.81,23.05v4.15c-1.88,2.38-4.29,3.41-7.89,3.41-.29,0-.59,0-.9-.02-2.63-.12-5.46-.17-8.9-.17-2.19,0-4.38.02-6.57.04-2.18.02-4.37.04-6.55.04h-3v227.87h3c2.22,0,4.42.02,6.61.04,2.17.02,4.32.04,6.46.04,3.34,0,6.09-.05,8.65-.15.28-.01.56-.02.84-.02,3.9,0,6.41,1.14,8.25,3.79v4.11c-1.99,2.4-4.58,3.35-8.93,3.35h-.02ZM261.95,361.09h56.74v-3c0-8.21.02-16.37.04-24.49.05-20.34.11-41.38-.2-61.96-.16-10.52-8.52-18.33-19.88-18.57-2.06-.04-4.29-.06-7.01-.06-1.64,0-3.29,0-4.93.01-1.63,0-3.27.01-4.91.01h-19.86s0,108.06,0,108.06ZM227.61,253.02c-3.95,0-7.87,0-11.8,0-14.78.03-22.6,7.88-22.61,22.71-.02,17.89-.01,35.77-.01,53.66v31.67h56.88v-108.04h-22.45ZM48.47,361.04h133.65v-32.56c0-17.51,0-35.03,0-52.54.02-20.91,12.93-33.92,33.7-33.95,12.64-.02,25.28-.03,37.91-.03,14.02,0,28.04,0,42.07.02,21.3.02,34.03,12.77,34.05,34.11.02,17.68.01,35.36,0,53.05v31.71s133.74,0,133.74,0v-227.01h-80.63l3.16,4.68c5,7.41,2.56,9.48,1.24,10.59-.99.83-1.96,1.24-2.99,1.24-1.89,0-4.27-1.36-6.86-3.95l-.31-.31c-.23-.22-.46-.45-.68-.68l-12.35-13.19c-34.04-36.35-68.08-72.69-102.09-109.06-.63-.68-1.22-1.57-1.9-2.61-.39-.6-.81-1.23-1.28-1.9l-2.17-3.08-2.52,2.81c-.78.87-1.43,1.6-2,2.24-1,1.12-1.76,1.98-2.54,2.81l-23.2,24.99c-24.5,26.39-49.83,53.69-74.8,80.48-6.35,6.81-12.89,13.24-19.6,19.78-1.31,1.28-2.79,1.95-4.28,1.95-1.21,0-2.39-.46-3.41-1.33-3.45-2.94-1.45-6.63-.43-8.08.42-.6.81-1.22,1.25-1.92.2-.32.42-.67.65-1.04l2.96-4.62H48.47v227.38ZM309.6,58.08c19.68,21.2,38.28,41.23,57.2,61.39,1.92,2.05,5.36,2.79,7.94,2.8,18.35.05,38.27.08,62.7.08,14.06,0,28.13,0,42.19-.02h3.09c1.08,0,2.12-.12,3.22-.25.52-.06,1.09-.12,1.71-.18l4.69-.43-2.38-4.07c-.39-.66-.73-1.26-1.05-1.82-.64-1.12-1.19-2.08-1.8-3.04-3.87-6.09-7.76-12.17-11.65-18.26-9.57-14.98-19.47-30.48-28.99-45.84-3.86-6.24-8.73-8.9-16.29-8.9h-.16c-18.05.09-37.41.13-62.8.13-10.19,0-20.38,0-30.57-.01s-20.38-.01-30.58-.01h-13.58l17.11,18.43ZM79.49,39.62c-5.66,0-9.72,2.26-12.78,7.12-9.5,15.08-19.24,30.37-28.65,45.16-4.73,7.43-9.46,14.86-14.18,22.3-.52.82-.88,1.66-1.22,2.47-.15.35-.3.72-.49,1.12l-1.76,3.81,4.18.43c.41.04.76.09,1.09.13.7.09,1.35.17,2.06.17h15.34c9.59.01,19.19.02,28.78.02,18.2,0,42.2-.02,66.36-.14,3.11-.02,6.44-2.08,8.35-4.12,18.32-19.55,36.84-39.51,54.75-58.82l10.28-11.08c.54-.59,1.04-1.19,1.62-1.9.3-.37.63-.77,1.03-1.24l3.52-4.2-5.43-.71c-.55-.07-1.02-.15-1.43-.21-.86-.14-1.61-.25-2.43-.25-14.38,0-28.76,0-43.14,0-28.6,0-57.21,0-85.81-.04h-.03Z"/>
      <path class="cls-1" d="M256.05,193.17c-31.32,0-56.82-25.41-56.85-56.63-.01-15.08,5.9-29.3,16.66-40.04,10.76-10.74,25.01-16.65,40.14-16.65,31.16.04,56.61,25.34,56.8,56.4.09,15.05-5.76,29.28-16.47,40.08-10.76,10.84-25.02,16.82-40.17,16.85h-.09ZM256,90.95c-25.06,0-45.57,20.37-45.71,45.41-.07,12.06,4.63,23.49,13.24,32.18,8.63,8.72,20.06,13.54,32.19,13.59,0,0,.19,0,.19,0,12.26,0,23.79-4.8,32.48-13.52,8.63-8.66,13.36-20.11,13.31-32.23-.09-25.04-20.59-45.42-45.7-45.42h0Z"/>
      <path class="cls-1" d="M110.99,329.9c-7.86,0-15.91-.02-23.94-.07-5.53-.03-7.14-1.73-7.17-7.55-.03-5.67-.02-11.34-.02-17v-6.94c0-2.45,0-4.89,0-7.34-.01-5.44-.02-11.07.03-16.59.05-5.12,1.76-6.87,6.8-6.91,7.96-.07,16.1-.1,24.18-.1s16.1.03,24.18.1c5.25.04,6.94,1.81,6.96,7.28.05,16.87.05,32.54,0,47.9-.02,5.32-1.8,7.13-7.08,7.16-7.86.05-15.92.07-23.94.07ZM91.25,318.4h39.56v-39.55h-39.56v39.55Z"/>
      <path class="cls-1" d="M401.06,329.91c-8.11,0-16.33-.03-24.43-.1-4.89-.04-6.63-1.89-6.65-7.08-.05-17.52-.05-33.35,0-48.4.02-4.92,1.75-6.77,6.39-6.82,8.23-.08,16.56-.13,24.78-.13s16.42.04,24.57.12c4.66.05,6.33,1.83,6.37,6.83.05,5.69.04,11.48.03,17.09,0,2.45-.01,4.9-.01,7.34s0,4.76,0,7.14c.01,5.51.02,11.2-.02,16.8-.04,5.21-1.77,7.06-6.62,7.1-8.11.07-16.33.1-24.43.1ZM381.23,318.41h39.65v-39.55h-39.65v39.55Z"/>
      <path class="cls-1" d="M110.82,236.01c-8.11,0-16.23-.02-24.12-.07-4.91-.03-6.76-1.9-6.8-6.91-.05-5.7-.04-11.5-.03-17.11,0-2.44.01-4.88.01-7.32s0-4.97-.01-7.46c-.01-5.57-.03-11.32.04-16.97.05-4.66,1.72-6.41,6.16-6.45,8.27-.07,16.59-.11,24.73-.11s16.86.04,25.13.12c4.37.04,6.08,1.87,6.1,6.52.07,16,.07,32.45,0,48.89-.02,4.93-1.9,6.77-6.93,6.8-8.09.04-16.17.06-24.26.06ZM91.2,224.59h39.45v-39.59h-39.45v39.59Z"/>
      <path class="cls-1" d="M401.08,236.02c-8.16,0-16.4-.03-24.49-.08-4.66-.03-6.58-1.95-6.6-6.62-.07-15.43-.07-31.42,0-48.89.02-4.85,1.76-6.66,6.42-6.7,8.32-.07,16.66-.1,24.79-.1s16.51.04,24.57.11c4.69.04,6.29,1.75,6.33,6.78.05,5.69.04,11.48.03,17.07,0,2.45,0,4.9,0,7.36s0,4.84,0,7.26c.01,5.47.02,11.12-.03,16.67-.04,5.12-1.84,7.04-6.64,7.07-8.12.05-16.32.08-24.38.08ZM381.36,224.5h39.45v-39.47h-39.45v39.47Z"/>
      <path class="cls-1" d="M260.01,142.06c-8.48,0-9.56-1.08-9.57-9.63,0-1.09-.01-2.19-.02-3.28-.02-2.82-.04-5.73.06-8.55.16-4.36,2.01-6.57,5.5-6.57,3.52.03,5.37,2.31,5.56,6.77.02.55,0,1.1,0,1.65-.03,1.12-.06,2.39.17,3.7.26,1.48,1.44,3.98,3.62,4.77,3.84,1.4,5.14,3.41,4.5,6.94-.21,1.14-.75,4.16-7.83,4.2h-.71s-1.27,0-1.27,0Z"/>
    </g>
  </g>
</svg>