<?xml version="1.0" encoding="UTF-8"?>
<svg id="Capa_2" data-name="Capa 2" xmlns="http://www.w3.org/2000/svg" viewBox="0 0 391.27 295.78">
  <defs>
    <style>
      .cls-1 {
        fill: #edd3c8;
        stroke-width: 0px;
      }
    </style>
  </defs>
  <g id="icon">
    <path class="cls-1" d="M340.63,295.78c-1.37,0-2.74-.01-4.1-.03-1.34-.01-2.69-.02-4.03-.02h-148.4c-45.46,0-90.91,0-136.37,0-21.81,0-39.18-12.05-45.33-31.45-1.48-4.67-2.27-9.79-2.28-14.8C0,188.05-.03,121.57.04,46.25.07,20.31,18.96.87,44.98.03c.61-.02,1.21-.02,1.82-.02h153.97c47.65,0,95.3,0,142.96,0,20.48,0,35.16,9.17,43.62,27.25,1.24,2.65,2.01,5.39,2.75,8.04.32,1.12.63,2.25.98,3.36l.19.59v217.24l-.19.59c-.35,1.11-.67,2.23-.98,3.36-.75,2.65-1.52,5.38-2.75,8.03-8.08,17.37-22.08,26.53-41.62,27.23-1.53.06-3.15.08-5.1.08ZM30.48,247.49c0,12.1,5.6,17.74,17.62,17.74h295.21c11.78,0,17.51-5.72,17.51-17.49V79.99s-53.31,35.61-53.31,35.61c-25.33,16.92-50.65,33.84-75.98,50.75-10.91,7.28-23.31,11.13-35.88,11.13-12.52,0-24.86-3.82-35.7-11.05L30.47,79.95v167.54ZM30.63,43.38s.21.23.85.66c18.55,12.35,37.08,24.73,55.61,37.11,29.7,19.84,60.41,40.36,90.7,60.41,5.84,3.87,11.86,5.83,17.89,5.83,6.01,0,12.01-1.95,17.82-5.8,30.99-20.5,62.41-41.49,92.79-61.79,17.94-11.99,35.88-23.98,53.84-35.94.32-.21.49-.36.57-.44,0-.1-.02-.3-.09-.61-1.69-7.93-7.58-12.3-16.59-12.3-23.88,0-47.76,0-71.65,0H72.36c-2.67,0-5.34,0-8.02-.01-2.66,0-5.33-.02-7.99-.02-4.06,0-7.4.02-10.5.06-7.67.11-13.32,4.59-15.11,11.99-.13.56-.12.81-.12.87t0,0Z"/>
  </g>
</svg>