<?xml version="1.0" encoding="UTF-8"?>
<svg id="Capa_2" data-name="Capa 2" xmlns="http://www.w3.org/2000/svg" viewBox="0 0 55 39.16">
  <defs>
    <style>
      .cls-1 {
        fill: #fff;
        stroke-width: 0px;
      }
    </style>
  </defs>
  <g id="Capa_7" data-name="Capa 7">
    <path class="cls-1" d="M54.5,39.16c-.18,0-.49-.14-.7-.24-2.45-1.2-5.16-2.07-8.27-2.65-2.47-.46-4.98-.7-7.47-.7-3.26,0-6.58.4-9.87,1.2-.19.05-.39.07-.6.07-.45,0-.89-.1-1.37-.21-.09-.02-.18-.04-.27-.06-3-.66-6.01-.99-8.95-.99-3.87,0-7.74.58-11.51,1.71-1.37.41-2.7.98-3.98,1.53l-.39.17c-.21.09-.41.14-.57.14h0c-.15,0-.52,0-.52-.82C0,26.95,0,15.59,0,4.23c0-.73.15-.88.87-.88.43,0,.85,0,1.29,0h2.58s0-.51,0-.51c0-.13,0-.25,0-.38,0-.25,0-.49,0-.72.02-.55.12-.67.68-.81,2.43-.61,4.88-.92,7.29-.92,1.14,0,2.29.07,3.43.21,4.51.55,8.04,2.14,10.78,4.88.05.05.09.09.15.13.02.02.04.04.07.06l.33.28.33-.28s.08-.06.11-.09c.09-.07.19-.15.28-.24,2.5-2.39,5.59-3.88,9.43-4.54C39.14.14,40.69,0,42.24,0c2.38,0,4.86.31,7.37.93.48.12.59.25.6.75,0,.24,0,.47,0,.74,0,.13,0,.27,0,.41v.51h2.61c.12,0,.24,0,.36,0,.13,0,.26,0,.38,0,.19,0,.35,0,.5-.02.05,0,.1,0,.14,0,.36,0,.6.13.79.41v35.03c-.29.35-.41.38-.5.38ZM38.23,34.42c5.04,0,10.05.98,14.9,2.93l.7.28V4.53h-3.56v27.15c0,.05,0,.11,0,.17,0,.14,0,.26,0,.37-.05.38-.25.56-.63.56-.17,0-.36-.01-.58-.05-2.29-.32-4.35-.47-6.32-.47-1.53,0-3.03.1-4.45.29-1.06.14-2.12.38-3.14.6-.46.1-.93.21-1.4.3l-.48.1.17,1.14.49-.05c1.43-.15,2.88-.23,4.29-.23ZM1.17,37.63l.7-.28c4.86-1.95,9.91-2.94,15.02-2.94,1.37,0,2.76.07,4.15.21l.31-.95c-.2-.12-.4-.18-.54-.23-2.56-.76-5.17-1.15-7.74-1.15-.35,0-.71,0-1.06.02-1.68.07-3.38.22-5.02.37-.46.04-.92.08-1.37.12-.05,0-.1,0-.15,0-.46,0-.65-.18-.68-.66,0-.13,0-.26,0-.4v-.17s0-27.02,0-27.02H1.17v33.08ZM42.21,1.21c-1.51,0-3.01.13-4.45.4-3.86.71-6.87,2.26-9.21,4.74-.28.29-.47.76-.47,1.15-.02,8.19-.01,16.51-.01,24.56v1.47c0,.13.01.25.02.36,0,.05,0,.1.01.15l.06.81.7-.41c3.9-2.26,8.24-3.31,13.64-3.31,1.78,0,3.74.12,5.97.35l.57.06V2.08l-.36-.11-.06-.02c-.07-.02-.13-.04-.2-.06-2.19-.46-4.22-.68-6.22-.68ZM12.46,31.16c5.45,0,9.8,1.05,13.66,3.31l.66.38.11-.75s0-.06.01-.08c0-.05.02-.1.02-.17v-2.15c0-7.97-.01-16.22-.03-24.33,0-.38-.21-.74-.4-.95-1.63-1.77-3.64-3.1-6-3.94-2.41-.86-4.91-1.28-7.64-1.28-2.04,0-4.17.23-6.53.71l-.41.08v29.55l.56-.06c2.26-.23,4.22-.34,5.99-.34Z"/>
  </g>
</svg>