<?xml version="1.0" encoding="UTF-8"?>
<svg id="Capa_2" data-name="Capa 2" xmlns="http://www.w3.org/2000/svg" viewBox="0 0 308 40.83">
  <defs>
    <style>
      .cls-1 {
        fill: #fff;
        stroke-width: 0px;
      }
    </style>
  </defs>
  <g id="Capa_1-2" data-name="Capa 1">
    <g>
      <g>
        <polygon class="cls-1" points="308 6.59 308 11.56 307.59 11.97 294.39 25.17 308 25.17 306.22 30.54 286.49 30.54 286.49 25.46 299.98 11.97 286.49 11.97 286.49 6.59 308 6.59"/>
        <path class="cls-1" d="M177.58,30.54V0h7.17v25.15h14.34l-1.79,5.38h-19.72Z"/>
        <path class="cls-1" d="M225.33,13.1c0-5.16-5.11-7.22-11.53-7.22-5.77,0-10.6,2.11-10.36,7.97h6.19c0-2.02,1.59-2.95,4.36-2.91,3.09,0,4.5,1.03,4.5,2.77v2.95h-6.47c-5.53,0-10.6,1.78-10.08,7.92.42,5.11,5.77,6.94,10.27,6.38,2.95-.38,5.3-1.88,6.28-4.69v4.27h6.85V13.1ZM212.49,26.41c-2.2.05-4.08-.61-3.94-3,.14-2.34,1.92-2.86,4.45-2.91l5.48-.05v1.64c-.33,2.48-3.47,4.27-6,4.31Z"/>
        <path class="cls-1" d="M282.18,13.1c0-5.16-5.11-7.22-11.53-7.22-5.77,0-10.6,2.11-10.36,7.97h6.19c0-2.02,1.59-2.95,4.36-2.91,3.09,0,4.5,1.03,4.5,2.77v2.95h-6.47c-5.53,0-10.6,1.78-10.08,7.92.42,5.11,5.77,6.94,10.27,6.38,2.95-.38,5.3-1.88,6.28-4.69v4.27h6.85V13.1ZM269.33,26.41c-2.2.05-4.08-.61-3.94-3,.14-2.34,1.92-2.86,4.45-2.91l5.48-.05v1.64c-.33,2.48-3.47,4.27-6,4.31Z"/>
        <path class="cls-1" d="M230.7,30.54V0h14.86c6.33,0,11.39,2.48,11.39,10.22,0,7.31-5.44,10.17-11.39,10.17h-7.69v4.74l-1.79,5.4h-5.38ZM237.87,15.24h7.55c2.81,0,5.11-.94,5.11-5.02,0-3.84-2.39-4.5-5.11-4.5h-7.55v9.52Z"/>
      </g>
      <polygon class="cls-1" points="166.3 30.54 169.88 30.54 171.67 25.16 166.3 25.16 166.3 30.54"/>
      <g>
        <path class="cls-1" d="M27.36,8.06h-.22c-4.32-5.55-4.67-5.99-8.55-5.99h-1.63v22.56c0,3.39.53,4.85,3.44,5.9v.18H6.92v-.18c2.95-1.06,3.44-2.51,3.44-5.9V2.06h-1.63c-3.92,0-4.19.44-8.55,5.99h-.18L.71.3h25.95l.7,7.75Z"/>
        <path class="cls-1" d="M45.11,25.28l.22.18c-1.32,2.11-4.71,5.77-9.34,5.77-6.39,0-10.66-4.67-10.66-11.28s4.98-12.25,10.84-12.25c5.15,0,8.86,2.82,8.86,8.94v1.81h-13.26c0,6.04,3.52,8.77,7.49,8.77,2.42,0,4.8-1.15,5.86-1.94M39.56,16.74c0-4.98-.97-7.71-3.7-7.71-2.56,0-4.1,3.88-4.1,8.41l7.8-.71Z"/>
        <path class="cls-1" d="M59.21,30.7h-11.81v-.18c2.38-1.01,2.82-2.42,2.82-5.82v-8.86c0-3.88-.44-4.85-3.3-5.99v-.18c3.17-.22,6.74-1.19,9.21-1.98h.18v3.57c1.45-1.45,4.49-3.52,7.36-3.52,2.47,0,4.76.97,5.82,3.79,1.37-1.45,4.89-3.83,8.02-3.83,3.48,0,6.26,2.11,6.26,7.67v9.34c0,3.39.44,4.8,2.82,5.82v.18h-11.81v-.18c2.38-1.01,2.82-2.42,2.82-5.82v-9.65c0-2.82-1.63-4.23-3.79-4.23-1.23,0-3.26.62-4.23,1.1.31.97.48,2.11.48,3.44v9.34c0,3.39.44,4.8,2.82,5.82v.18h-11.81v-.18c2.38-1.01,2.82-2.42,2.82-5.82v-9.65c0-2.82-1.41-4.23-3.61-4.23-1.32,0-2.86.48-3.88,1.01v12.86c0,3.39.44,4.8,2.82,5.82v.18Z"/>
        <path class="cls-1" d="M91.24,15.85c0-3.88-.44-4.85-3.3-5.99v-.18c3.83-.35,7-1.19,9.47-1.98h.18v3.79c1.01-1.06,3.88-3.79,7.45-3.79,5.73,0,9.16,4.63,9.16,10.57,0,9.03-8.37,12.95-13.88,12.95-.84,0-1.94-.04-2.73-.18v3.79c0,3.39.48,4.76,3.39,5.82v.18h-12.56v-.18c2.38-1.01,2.82-2.42,2.82-5.82V15.85ZM101.19,10.96c-1.37,0-2.82.66-3.61,1.19v17.09c.84.44,1.72.75,2.95.75,3.79,0,7.36-3.35,7.36-10.31,0-5.24-3.13-8.72-6.7-8.72"/>
        <path class="cls-1" d="M133.09,15.85c0-3.88-.44-4.85-3.3-5.99v-.18c3.17-.22,6.83-1.19,9.3-1.98h.18v15.38c0,3.88.44,4.85,3.3,5.99v.18c-3.83.35-6.74,1.19-9.21,1.98h-.18v-3.66c-1.67,1.45-4.14,3.66-7.36,3.66s-6.26-1.63-6.26-7.23v-8.15c0-3.88-.44-4.85-3.3-5.99v-.18c3.17-.22,6.83-1.19,9.3-1.98h.18v15.51c0,3.3,2.33,4.45,4.32,4.45,1.28,0,1.98-.18,3.04-.7v-11.1Z"/>
        <path class="cls-1" d="M144.5,29.82l-.22-6.65h.22c2.47,4.32,5.02,6.74,7.49,6.74,2.12,0,3.74-1.19,3.74-3.66,0-4.71-11.32-3.92-11.32-11.63,0-4.1,3.83-6.92,8.28-6.92,2.16,0,4.63.53,6.39,1.19v5.73h-.18c-2.38-3.61-4.49-5.6-6.52-5.6-1.81,0-3.35,1.1-3.35,3.22,0,4.58,11.68,3.92,11.68,11.76,0,4.67-4.23,7.23-8.9,7.23-2.91,0-5.38-.53-7.31-1.41"/>
      </g>
    </g>
  </g>
</svg>