<svg xmlns="http://www.w3.org/2000/svg" viewBox="0 0 157.52 50.19"><defs><style>.cls-1{fill:#fff;}</style></defs><g id="Capa_2" data-name="Capa 2"><g id="Capa_1-2" data-name="Capa 1"><path class="cls-1" d="M69.62,45.29A4.68,4.68,0,0,1,66.24,44a4.93,4.93,0,0,1,0-6.85,4.66,4.66,0,0,1,3.39-1.36,4.85,4.85,0,0,1,2.32.56,4.3,4.3,0,0,1,1.67,1.47l-.88.72a4,4,0,0,0-1.37-1.2,3.58,3.58,0,0,0-1.73-.43,3.48,3.48,0,0,0-2.56,1.05,3.6,3.6,0,0,0-1,2.65,3.47,3.47,0,0,0,3.6,3.6,3.79,3.79,0,0,0,3.16-1.6l.85.72a4.72,4.72,0,0,1-1.73,1.45,5,5,0,0,1-2.32.55"/><path class="cls-1" d="M78.24,40.59a4.78,4.78,0,1,1,8.14,3.32A4.68,4.68,0,0,1,83,45.3a4.57,4.57,0,0,1-3.37-1.36,4.62,4.62,0,0,1-1.35-3.35M83,44.17a3.45,3.45,0,0,0,2.54-1,3.51,3.51,0,0,0,1-2.59,3.57,3.57,0,0,0-1-2.62,3.56,3.56,0,0,0-5.07,0,3.53,3.53,0,0,0-1,2.6,3.57,3.57,0,0,0,1,2.59,3.49,3.49,0,0,0,2.55,1"/><polygon class="cls-1" points="99.46 45.15 93.31 45.15 93.31 35.91 94.46 35.91 94.46 44.02 99.46 44.02 99.46 45.15"/><path class="cls-1" d="M103.39,40.59a4.76,4.76,0,0,1,8.15-3.43,4.57,4.57,0,0,1,1.4,3.37,4.62,4.62,0,0,1-1.41,3.38,4.67,4.67,0,0,1-3.41,1.39,4.63,4.63,0,0,1-4.73-4.71m4.78,3.58a3.43,3.43,0,0,0,2.53-1,3.51,3.51,0,0,0,1-2.59,3.57,3.57,0,0,0-1-2.62,3.56,3.56,0,0,0-5.07,0,3.53,3.53,0,0,0-1,2.6,3.57,3.57,0,0,0,1,2.59,3.5,3.5,0,0,0,2.56,1"/><polygon class="cls-1" points="124.66 42.64 124.66 35.91 125.81 35.91 125.81 45.15 125.26 45.15 119.61 38.46 119.61 45.15 118.46 45.15 118.46 35.91 118.92 35.91 124.66 42.64"/><rect class="cls-1" x="131.94" y="35.91" width="1.15" height="9.24"/><path class="cls-1" d="M146.25,45.15H145l-1-2.46h-3.55l-1,2.46h-1.28L142,35.91h.55Zm-2.65-3.56L142.22,38l-1.37,3.56Z"/><polygon class="cls-1" points="157.52 45.15 151.36 45.15 151.36 35.91 152.51 35.91 152.51 44.02 157.52 44.02 157.52 45.15"/><polygon class="cls-1" points="88.53 5.08 88.53 10.99 82.61 5.08 88.53 5.08"/><polygon class="cls-1" points="70.8 28.73 64.87 28.73 64.87 28.73 64.87 22.8 70.8 28.73"/><polygon class="cls-1" points="88.53 22.81 88.53 28.73 82.63 28.73 64.87 10.98 64.87 5.08 70.79 5.08 88.53 22.81"/><rect class="cls-1" x="87.65" y="5.08" width="0.88" height="23.66"/><rect class="cls-1" x="64.87" y="5.08" width="0.88" height="23.66"/><path class="cls-1" d="M104.42,28.92c-3.71,0-6.49-1-8.32-3S93.35,21,93.35,17.17s1-6.81,3-9,4.75-3.29,8.35-3.29S111,5.93,112.8,8s2.75,5,2.75,8.85-.93,6.78-2.79,8.89-4.63,3.17-8.34,3.17m4.26-10.63V15.82c0-4.06-.2-6.63-.6-7.69a3.39,3.39,0,0,0-1.9-2.27,4.74,4.74,0,0,0-1.7-.27,4.83,4.83,0,0,0-1.71.27,2.51,2.51,0,0,0-1.19.93,6.77,6.77,0,0,0-.75,1.4,9,9,0,0,0-.45,2.07c-.13,1.29-.2,3.19-.2,5.7v2.4a36.29,36.29,0,0,0,.32,5.78,7.37,7.37,0,0,0,.78,2.45,3.54,3.54,0,0,0,3.2,1.63A3.25,3.25,0,0,0,107.9,26a26.13,26.13,0,0,0,.78-7.71"/><polygon class="cls-1" points="130.89 21.11 136.8 5.08 137.74 5.08 129.01 28.73 126.69 28.73 117.96 5.08 124.97 5.08 130.89 21.11"/><path class="cls-1" d="M150.51,28.73h7L148.79,5.08h-2.32l-8.73,23.65h.93l2.91-7.87h6Zm-8.66-8.61,2.74-7.42,2.74,7.42Z"/><polygon class="cls-1" points="50.19 0 50.19 12.54 37.65 0 50.19 0"/><polygon class="cls-1" points="12.59 50.19 0 50.19 0 50.19 0 37.6 12.59 50.19"/><polygon class="cls-1" points="50.19 37.63 50.19 50.19 37.67 50.19 0 12.52 0 0 12.57 0 50.19 37.63"/><rect class="cls-1" x="48.33" width="1.86" height="50.19"/><rect class="cls-1" width="1.86" height="50.19"/></g></g></svg>