<?xml version="1.0" encoding="UTF-8"?>
<svg id="Capa_2" data-name="Capa 2" xmlns="http://www.w3.org/2000/svg" viewBox="0 0 376 138.59">
  <defs>
    <style>
      .cls-1 {
        fill: #fff;
        stroke-width: 0px;
      }
    </style>
  </defs>
  <g id="Capa_1-2" data-name="Capa 1">
    <g>
      <polygon class="cls-1" points="376 91.18 376 100.8 375.2 101.6 349.62 127.18 376 127.18 372.55 137.59 334.31 137.59 334.31 127.75 360.45 101.6 334.31 101.6 334.31 91.18 376 91.18"/>
      <path class="cls-1" d="M123.27,137.59v-59.18h13.9v48.74h27.78l-3.46,10.43h-38.22Z"/>
      <path class="cls-1" d="M215.8,103.8c0-9.99-9.9-13.99-22.35-13.99-11.17,0-20.53,4.09-20.08,15.44h11.99c0-3.91,3.09-5.72,8.45-5.63,6,0,8.72,2,8.72,5.36v5.72h-12.54c-10.72,0-20.53,3.45-19.53,15.35.82,9.9,11.17,13.45,19.9,12.36,5.72-.73,10.27-3.63,12.17-9.08v8.27h13.27v-33.79ZM190.91,129.59c-4.27.09-7.9-1.18-7.63-5.81.27-4.54,3.72-5.54,8.63-5.63l10.63-.09v3.18c-.64,4.81-6.72,8.27-11.63,8.36Z"/>
      <path class="cls-1" d="M325.96,103.8c0-9.99-9.9-13.99-22.35-13.99-11.17,0-20.53,4.09-20.08,15.44h11.99c0-3.91,3.09-5.72,8.45-5.63,6,0,8.72,2,8.72,5.36v5.72h-12.54c-10.72,0-20.53,3.45-19.53,15.35.82,9.9,11.17,13.45,19.9,12.36,5.72-.73,10.27-3.63,12.17-9.08v8.27h13.27v-33.79ZM301.07,129.59c-4.27.09-7.9-1.18-7.63-5.81.27-4.54,3.72-5.54,8.63-5.63l10.63-.09v3.18c-.64,4.81-6.72,8.27-11.63,8.36Z"/>
      <path class="cls-1" d="M226.21,137.59v-59.18h28.8c12.26,0,22.08,4.81,22.08,19.8,0,14.17-10.54,19.71-22.08,19.71h-14.9v9.19l-3.46,10.47h-10.43ZM240.11,107.93h14.63c5.45,0,9.9-1.82,9.9-9.72,0-7.45-4.63-8.72-9.9-8.72h-14.63v18.44Z"/>
      <polygon class="cls-1" points="111.83 115.57 103.82 110.97 92.52 112.53 92.52 94.73 78 85.36 19.8 108.94 19.8 118.03 19.8 137.59 111.83 137.59 111.83 118.03 111.83 115.57"/>
      <g>
        <path class="cls-1" d="M53.02,15.03h-.43c-8.37-10.76-9.05-11.61-16.56-11.61h-3.16v43.71c0,6.57,1.02,9.39,6.66,11.44v.34H13.4v-.34c5.72-2.05,6.66-4.87,6.66-11.44V3.41h-3.16c-7.6,0-8.11.85-16.56,11.61h-.34L1.37,0h50.29l1.37,15.03Z"/>
        <path class="cls-1" d="M87.42,48.41l.43.34c-2.56,4.1-9.14,11.18-18.1,11.18-12.38,0-20.66-9.05-20.66-21.86s9.65-23.73,21-23.73c9.99,0,17.16,5.46,17.16,17.33v3.5h-25.7c0,11.7,6.83,16.99,14.51,16.99,4.7,0,9.31-2.22,11.36-3.76M76.66,31.84c0-9.65-1.88-14.94-7.17-14.94-4.95,0-7.94,7.51-7.94,16.31l15.11-1.37Z"/>
        <path class="cls-1" d="M114.74,58.91h-22.88v-.34c4.61-1.96,5.46-4.7,5.46-11.27v-17.16c0-7.51-.85-9.39-6.4-11.61v-.34c6.15-.43,13.06-2.31,17.84-3.84h.34v6.92c2.82-2.82,8.71-6.83,14.26-6.83,4.78,0,9.22,1.88,11.27,7.34,2.65-2.82,9.48-7.43,15.54-7.43,6.75,0,12.12,4.1,12.12,14.85v18.1c0,6.57.85,9.31,5.46,11.27v.34h-22.88v-.34c4.61-1.96,5.46-4.7,5.46-11.27v-18.7c0-5.46-3.16-8.2-7.34-8.2-2.39,0-6.32,1.2-8.2,2.13.6,1.88.94,4.1.94,6.66v18.1c0,6.57.85,9.31,5.46,11.27v.34h-22.88v-.34c4.61-1.96,5.46-4.7,5.46-11.27v-18.7c0-5.46-2.73-8.2-7-8.2-2.56,0-5.55.94-7.51,1.96v24.93c0,6.57.85,9.31,5.46,11.27v.34Z"/>
        <path class="cls-1" d="M176.8,30.14c0-7.51-.85-9.39-6.4-11.61v-.34c7.43-.68,13.57-2.31,18.35-3.84h.34v7.34c1.96-2.05,7.51-7.34,14.43-7.34,11.1,0,17.76,8.96,17.76,20.49,0,17.5-16.22,25.1-26.89,25.1-1.62,0-3.76-.09-5.29-.34v7.34c0,6.57.94,9.22,6.57,11.27v.34h-24.33v-.34c4.61-1.96,5.46-4.7,5.46-11.27V30.14ZM196.09,20.66c-2.65,0-5.46,1.28-7,2.3v33.13c1.62.85,3.33,1.45,5.72,1.45,7.34,0,14.26-6.49,14.26-19.98,0-10.16-6.06-16.9-12.98-16.9"/>
        <path class="cls-1" d="M257.9,30.14c0-7.51-.85-9.39-6.4-11.61v-.34c6.15-.43,13.23-2.3,18.01-3.84h.34v29.8c0,7.51.85,9.39,6.4,11.61v.34c-7.43.68-13.06,2.31-17.84,3.84h-.34v-7.09c-3.24,2.82-8.03,7.09-14.26,7.09s-12.12-3.16-12.12-14v-15.79c0-7.51-.85-9.39-6.4-11.61v-.34c6.15-.43,13.23-2.3,18.01-3.84h.34v30.05c0,6.4,4.52,8.62,8.37,8.62,2.48,0,3.84-.34,5.89-1.37v-21.51Z"/>
        <path class="cls-1" d="M280.01,57.2l-.43-12.89h.43c4.78,8.37,9.73,13.06,14.51,13.06,4.1,0,7.26-2.3,7.26-7.09,0-9.13-21.94-7.6-21.94-22.54,0-7.94,7.43-13.4,16.05-13.4,4.18,0,8.96,1.02,12.38,2.31v11.1h-.34c-4.61-7-8.71-10.84-12.63-10.84-3.5,0-6.49,2.13-6.49,6.23,0,8.88,22.62,7.6,22.62,22.79,0,9.05-8.2,14-17.25,14-5.63,0-10.42-1.02-14.17-2.73"/>
      </g>
    </g>
  </g>
</svg>