<?xml version="1.0" encoding="UTF-8"?>
<svg id="Capa_2" data-name="Capa 2" xmlns="http://www.w3.org/2000/svg" viewBox="0 0 76 83.1">
  <defs>
    <style>
      .cls-1 {
        fill: #fff;
        stroke-width: 0px;
      }
    </style>
  </defs>
  <g id="Capa_1-2" data-name="Capa 1">
    <g>
      <g>
        <path class="cls-1" d="M55.1,75.29c0-4.38,3.52-7.81,7.91-7.81s7.91,3.43,7.91,7.81-3.52,7.81-7.91,7.81-7.91-3.43-7.91-7.81Z"/>
        <path class="cls-1" d="M61.6,32.12h-.5c-9.72-12.5-10.51-13.49-19.24-13.49h-3.67v50.79c0,7.64,1.19,10.91,7.74,13.29v.4H15.57v-.4c6.65-2.38,7.74-5.65,7.74-13.29V18.63h-3.67c-8.83,0-9.42.99-19.24,13.49h-.4L1.59,14.66h58.42l1.59,17.46Z"/>
      </g>
      <g>
        <path class="cls-1" d="M36.61,6.13l-2.44.81v-.04c.41-.37.4-.7.17-1.4l-.61-1.83c-.27-.8-.43-.97-1.1-1.01v-.04c.63-.26,1.32-.72,1.77-1.05h.04s1.17,3.5,1.17,3.5c.23.7.42.96.98,1.01v.04ZM32.73.95c-.12-.37.08-.79.46-.91.38-.13.8.08.92.45.12.37-.08.79-.46.91-.37.12-.79-.08-.91-.46Z"/>
        <path class="cls-1" d="M40.05,5.46l-2.55.32v-.04c.48-.28.54-.6.45-1.33l-.24-1.91c-.11-.84-.23-1.04-.88-1.21v-.04c.67-.13,1.42-.44,1.93-.68h.04s.1.77.1.77c.27-.35.94-.89,1.56-.97.75-.1,1.48.24,1.64,1.47l.25,2.02c.09.73.23,1.03.77,1.18v.04s-2.55.32-2.55.32v-.04c.48-.28.54-.6.45-1.33l-.26-2.09c-.08-.61-.55-.86-1.02-.8-.29.04-.6.18-.8.32l.35,2.78c.09.73.23,1.03.77,1.18v.04Z"/>
        <path class="cls-1" d="M46.46,5.34l-2.54-.45v-.04c.56-.13.7-.41.83-1.14l.34-1.9c.15-.83.09-1.06-.48-1.41v-.04c.7.07,1.5,0,2.06-.08h.04s-.14.77-.14.77c.37-.26,1.1-.59,1.71-.48.53.09.98.39,1.1,1.03.35-.26,1.2-.64,1.87-.52.75.13,1.26.69,1.05,1.88l-.35,2.01c-.13.73-.09,1.05.38,1.36v.04s-2.54-.45-2.54-.45v-.04c.56-.13.7-.41.83-1.14l.37-2.07c.11-.61-.19-.97-.65-1.05-.26-.05-.72,0-.95.08.03.22.02.47-.03.76l-.35,2.01c-.13.73-.09,1.05.38,1.36v.04s-2.54-.45-2.54-.45v-.04c.56-.13.7-.41.83-1.14l.37-2.07c.11-.61-.14-.96-.62-1.05-.28-.05-.63,0-.87.07l-.49,2.76c-.13.73-.09,1.05.38,1.36v.04Z"/>
        <path class="cls-1" d="M54.14,4.69c.7-1.36,2.3-1.7,3.51-1.08,1.22.63,1.87,2.13,1.18,3.49-.66,1.29-2.26,1.72-3.52,1.07-1.26-.65-1.83-2.19-1.17-3.48ZM57.53,6.44c.58-1.14.68-2.21,0-2.56s-1.5.35-2.08,1.49c-.51,1-.77,2.16,0,2.56.78.4,1.58-.48,2.09-1.48Z"/>
        <path class="cls-1" d="M62.47,6.01c.56-.64.62-.86.32-1.45l.03-.03c.54.41,1.31.8,1.83,1.03l.03.03-2,2.29c.3-.03,1.15-.06,1.76.47.85.74.93,1.96-.01,3.04-1.29,1.48-3.25.93-4.14.15-.49-.43-1.08-1.21-1.28-1.55l3.46-3.96ZM63.34,8.31c-.25-.21-.53-.31-.74-.34l-2.46,2.82c.08.2.18.38.38.55.62.54,1.67.51,2.67-.64.78-.9.71-1.91.15-2.39Z"/>
        <path class="cls-1" d="M64.83,16.31l-1.58-2.03.03-.02c.49.27.79.16,1.38-.29l1.53-1.18c.67-.52.78-.72.59-1.37l.03-.02c.46.52,1.12,1.02,1.58,1.34l.02.03-2.93,2.27c-.58.45-.77.72-.62,1.26l-.03.02ZM68.43,10.94c.31-.24.77-.18,1.01.13.25.32.19.78-.12,1.02-.31.24-.77.18-1.02-.13-.24-.31-.18-.77.13-1.01Z"/>
        <path class="cls-1" d="M66.66,19.37l-1.31-2.26.03-.02c.45.34.76.27,1.4-.1l3.6-2.08c.73-.42.87-.61.77-1.28l.03-.02c.39.57.99,1.19,1.41,1.57l.02.03-5.14,2.97c-.64.37-.86.61-.79,1.17l-.03.02Z"/>
        <path class="cls-1" d="M68.04,22.61l-.97-2.38h.04c.4.38.72.36,1.41.08l1.79-.73c.78-.32.94-.49.94-1.16h.04c.3.61.8,1.27,1.16,1.7v.04s-3.42,1.4-3.42,1.4c-.69.28-.93.48-.94,1.05h-.04ZM72.96,18.41c.36-.15.79.03.94.4.15.37-.03.8-.39.95s-.79-.03-.94-.4c-.15-.36.03-.79.4-.94Z"/>
        <path class="cls-1" d="M73.76,24.63c.25,1.17-.15,1.9-1.3,2.14l-1.95.42c-.74.16-.78.46-.73.97h-.04c-.25-.26-.62-.76-.71-1.2-.09-.4.05-.78.47-.93-.35-.26-.84-.7-.97-1.31-.15-.69.19-1.32.87-1.46.77-.16,1.69.5,2.28,2.29l.54-.12c.76-.16,1.2-.75,1.04-1.46-.06-.26-.22-.5-.35-.63,0,.4-.21.69-.51.76-.38.08-.69-.16-.77-.5-.07-.33.14-.69.48-.76.68-.14,1.42.75,1.64,1.78ZM71.35,25.63c0-.09,0-.18-.03-.26-.11-.52-.45-1.03-1.24-.87-.54.11-.75.65-.66,1.04.03.15.12.32.22.44l1.7-.36Z"/>
        <path class="cls-1" d="M70.74,30.78c-.74.01-1.04.13-1.25.77h-.04s-.05-2.7-.05-2.7h.04c.23.51.54.6,1.28.59l1.93-.04c.84-.02,1.05-.12,1.29-.75h.04c.06.69.29,1.48.47,2.02v.04s-3.71.07-3.71.07ZM73.74,32.48c-.4,0-.73-.31-.74-.72,0-.41.3-.73.71-.73.4,0,.75.29.75.71,0,.4-.32.74-.72.74Z"/>
        <path class="cls-1" d="M69.02,35.95l.35-2.55h.04c.15.55.44.69,1.17.78l1.91.26c.84.11,1.06.05,1.39-.54h.04c-.05.7.06,1.52.16,2.07v.04s-3.68-.5-3.68-.5c-.73-.1-1.05-.05-1.34.44h-.04ZM75.38,34.76c.39.05.67.42.62.81-.05.4-.42.68-.81.63-.39-.05-.67-.42-.62-.82.05-.39.42-.67.81-.62Z"/>
        <path class="cls-1" d="M72.99,40.54c-.37,1.14-1.07,1.57-2.19,1.21l-1.9-.61c-.72-.23-.9.01-1.11.48h-.04c-.09-.37-.15-.99-.02-1.41.13-.39.43-.65.87-.57-.17-.4-.38-1.03-.19-1.61.21-.67.82-1.05,1.48-.84.75.24,1.22,1.28.84,3.12l.53.17c.74.24,1.41-.05,1.63-.75.08-.26.05-.55,0-.72-.19.35-.52.5-.82.4-.37-.12-.52-.48-.41-.82.1-.32.46-.53.79-.42.66.21.86,1.35.54,2.36ZM70.39,40.21c.04-.08.08-.16.11-.24.16-.5.13-1.12-.64-1.36-.52-.17-.97.19-1.09.58-.05.15-.06.33-.03.5l1.66.53Z"/>
      </g>
    </g>
  </g>
</svg>