<?xml version="1.0" encoding="UTF-8"?>
<svg id="Capa_2" data-name="Capa 2" xmlns="http://www.w3.org/2000/svg" viewBox="0 0 99 99">
  <defs>
    <style>
      .cls-1 {
        opacity: .8;
      }

      .cls-1, .cls-2 {
        fill: #fff;
        stroke-width: 0px;
      }

      .cls-2 {
        opacity: .2;
      }
    </style>
  </defs>
  <g id="Capa_1-2" data-name="Capa 1">
    <g>
      <circle class="cls-2" cx="49.5" cy="49.5" r="49.5"/>
      <path class="cls-1" d="M54.53,58.53c-7.02,4.49-15.25,2.1-19.29-3.38-4.2-5.7-3.65-13.52,1.31-18.52,4.94-4.97,12.72-5.61,18.4-1.56,5.57,3.97,8.17,12.3,3.61,19.42.11.11.21.23.33.34,2.27,2.27,4.55,4.54,6.82,6.82,1.33,1.35,1.12,3.44-.42,4.46-1.13.74-2.6.58-3.62-.43-1.97-1.95-3.92-3.92-5.88-5.88-.42-.42-.83-.85-1.25-1.28ZM36.69,46.64c0,5.46,4.48,9.95,9.94,9.96,5.45.01,9.95-4.47,9.98-9.93.02-5.47-4.49-9.99-9.97-9.99-5.46,0-9.95,4.5-9.95,9.96Z"/>
    </g>
  </g>
</svg>