<?xml version="1.0" encoding="UTF-8"?>
<svg id="Capa_2" data-name="Capa 2" xmlns="http://www.w3.org/2000/svg" viewBox="0 0 21 29.04">
  <defs>
    <style>
      .cls-1 {
        fill: #edd3c8;
        stroke-width: 0px;
      }
    </style>
  </defs>
  <g id="Capa_1-2" data-name="Capa 1">
    <g>
      <path class="cls-1" d="M10.51,0c5.13-.01,9.5,3.7,10.36,8.7.36,2.1-.05,4.06-.82,5.98-1.32,3.29-3.2,6.26-5.25,9.13-1.18,1.65-2.45,3.24-3.69,4.85-.37.49-.78.5-1.15.05-2.84-3.48-5.48-7.1-7.6-11.07-.96-1.79-1.81-3.63-2.19-5.65-.44-2.31,0-4.48,1.11-6.51C2.96,2.45,5.56.67,8.97.09c.24-.04.48-.07.73-.08.27-.01.54,0,.81,0ZM10.5,27.4c.11-.13.2-.22.28-.32,1.06-1.41,2.14-2.8,3.16-4.23,1.87-2.65,3.61-5.37,4.86-8.38.69-1.67,1.16-3.37.9-5.2-.63-4.48-4.32-7.89-8.85-8.01-3.41-.1-6.13,1.33-8.04,4.16-1.3,1.94-1.82,4.09-1.39,6.42.25,1.35.76,2.61,1.35,3.83,1.68,3.5,3.89,6.68,6.21,9.77.49.65,1.01,1.29,1.53,1.96Z"/>
      <path class="cls-1" d="M6.19,10.49c0-2.41,1.92-4.33,4.33-4.33,2.39,0,4.32,1.92,4.32,4.3,0,2.43-1.92,4.35-4.35,4.35-2.38,0-4.3-1.93-4.3-4.32ZM10.48,13.57c1.66.03,3.09-1.36,3.12-3.03.03-1.68-1.35-3.11-3.05-3.14-1.66-.03-3.08,1.36-3.12,3.03-.04,1.68,1.36,3.11,3.05,3.14Z"/>
    </g>
  </g>
</svg>