<?xml version="1.0" encoding="UTF-8"?>
<svg id="Capa_2" data-name="Capa 2" xmlns="http://www.w3.org/2000/svg" viewBox="0 0 203.66 281.62">
  <defs>
    <style>
      .cls-1 {
        fill: #495942;
        stroke-width: 0px;
      }
    </style>
  </defs>
  <g id="Capa_1-2" data-name="Capa 1">
    <g>
      <path class="cls-1" d="M101.95.04c49.7-.13,92.15,35.85,100.44,84.39,3.47,20.34-.46,39.35-7.96,57.98-12.83,31.88-31.05,60.72-50.96,88.51-11.46,16-23.75,31.42-35.75,47.03-3.63,4.72-7.61,4.86-11.15.52-27.53-33.76-53.1-68.89-73.73-107.38-9.3-17.36-17.52-35.21-21.21-54.76-4.22-22.36-.05-43.49,10.79-63.13C28.68,23.74,53.92,6.53,87.04.83c2.33-.4,4.7-.65,7.06-.77,2.61-.13,5.24-.03,7.85-.03ZM101.79,265.72c1.11-1.27,1.96-2.13,2.69-3.1,10.24-13.66,20.78-27.11,30.63-41.05,18.13-25.65,35.02-52.08,47.12-81.25,6.7-16.16,11.24-32.67,8.72-50.48-6.15-43.48-41.94-76.5-85.85-77.72-33.07-.92-59.48,12.85-78,40.38-12.64,18.78-17.6,39.69-13.49,62.25,2.38,13.06,7.39,25.28,13.12,37.19,16.34,33.96,37.71,64.74,60.26,94.76,4.77,6.35,9.75,12.53,14.81,19.03Z"/>
      <path class="cls-1" d="M60.01,101.77c0-23.37,18.57-41.96,41.95-41.97,23.17,0,41.88,18.61,41.88,41.67,0,23.59-18.59,42.19-42.16,42.18-23.08-.01-41.67-18.69-41.68-41.88ZM101.61,131.65c16.15.25,29.95-13.17,30.24-29.41.29-16.32-13.14-30.12-29.62-30.44-16.05-.31-29.9,13.16-30.24,29.43-.34,16.3,13.16,30.17,29.62,30.43Z"/>
    </g>
  </g>
</svg>