<?xml version="1.0" encoding="UTF-8"?>
<svg id="Capa_2" data-name="Capa 2" xmlns="http://www.w3.org/2000/svg" viewBox="0 0 408.81 406.79">
  <defs>
    <style>
      .cls-1 {
        fill: #4a5942;
        stroke-width: 0px;
      }
    </style>
  </defs>
  <g id="Capa_1-2" data-name="Capa 1">
    <g>
      <path class="cls-1" d="M77.47,406.79c-6.67-1.18-13.18-2.6-18.89-6.73-14.59-10.57-19.09-33.92-4.4-48.93,64.69-66.07,129.01-132.51,193.65-198.62,9.68-9.9,13.59-21.05,12.33-34.67-.81-8.7-1.18-17.55-.63-26.26.89-13.98,6.96-26.02,17.44-35.2,13.69-11.98,27.28-24.3,42.21-34.58,19.5-13.43,42.03-18.13,65.67-16.65,11.46.72,20.76,10.13,22.53,21.83,4.46,29.45-1.68,56.54-18.08,81.3-6.97,10.53-13.94,21.09-21.57,31.14-10.02,13.19-23.79,20.09-40.27,21.48-8.08.68-16.21.93-24.28,1.7-10.53,1-18.6,6.35-25.16,14.5-31.43,39.08-62.94,78.08-94.42,117.11-26.89,33.34-53.78,66.67-80.65,100.02-5.22,6.48-11.67,10.76-20.07,11.81-.77.1-1.5.48-2.25.73h-3.19ZM396.53,41.05c-.29-2.87-.65-7.24-1.2-11.59-.91-7.32-5.99-12.07-13.34-12.29-20.75-.63-40.58,3.59-57.46,15.74-14.62,10.52-28.17,22.66-41.49,34.85-7.89,7.22-11.56,17.2-11.6,28.02-.03,8.24.38,16.49.99,24.71,1.2,15.92-4.4,28.89-15.49,40.24-64.64,66.14-128.98,132.57-193.73,198.6-9.64,9.83-6.16,25.61,3.71,31.67,9.58,5.87,19.87,3.76,27.7-5.96,58.13-72.06,116.28-144.12,174.38-216.21,6.53-8.1,14.35-14.67,24.61-16.66,9.73-1.9,19.75-2.62,29.68-3.14,16.18-.84,28.77-7.61,37.82-21.04,5.65-8.38,11.37-16.71,17.08-25.05,12.47-18.2,18.75-38.26,18.32-61.89Z"/>
      <path class="cls-1" d="M0,65.05c.53-1.04,1.06-2.09,1.58-3.13,4.09-8.07,14.15-10.46,21.41-5.04,1.38,1.03,2.6,2.28,3.82,3.5,19.68,19.65,39.35,39.32,59.03,58.97,4.64,4.64,6.15,4.51,10.45-1.06-.95-1-1.9-2.06-2.91-3.07-21.36-21.36-42.72-42.72-64.09-64.08-.75-.75-1.52-1.49-2.25-2.26-3.5-3.65-3.86-7.02-1.05-9.78,2.8-2.74,6.15-2.38,9.77,1.24,22.04,22,44.06,44.02,66.06,66.05,1.03,1.03,1.91,2.22,3.38,3.96,1.49-2.04,2.64-3.62,4.09-5.6-.55-.58-1.49-1.62-2.48-2.61-21.73-21.74-43.48-43.47-65.21-65.21-1.03-1.03-2.15-2.03-2.96-3.22-1.89-2.79-1.71-5.6.76-7.92,2.33-2.19,5.05-2.22,7.65-.41,1.19.83,2.19,1.93,3.23,2.96,21.65,21.63,43.3,43.27,64.92,64.94,1.02,1.03,1.71,2.39,2.46,3.47,6.29-4.76,6.45-6.29,1.87-10.87-19.94-19.95-39.88-39.92-59.86-59.84-3.23-3.22-5.58-6.75-5.56-11.49.02-5.52,2.33-9.81,7.1-12.54,4.9-2.8,9.92-2.65,14.77.27,1.24.75,2.36,1.73,3.48,2.67,26.08,21.91,52.19,43.79,78.2,65.77,12.69,10.72,18.19,24.89,18.76,41.16.25,7.18.11,14.37.07,21.55-.05,11.16,4.11,20.42,12.39,27.86,3.07,2.76,6.16,5.49,9.14,8.34,3.08,2.96,3.45,6.58,1.11,9.18-2.43,2.69-6.03,2.81-9.2-.1-6.93-6.37-14.59-12.07-19.4-20.48-4.33-7.58-6.27-15.71-6.28-24.42,0-8.38.03-16.77-.51-25.12-.78-12.11-6.04-22.05-15.43-29.91-25.42-21.25-50.73-42.63-76.08-63.96-.71-.6-1.37-1.45-2.19-1.68-.97-.28-2.09-.01-3.15.02.08.96-.11,2.07.32,2.84.56,1.01,1.59,1.77,2.44,2.61,19.48,19.47,38.97,38.94,58.45,58.42,9.33,9.33,9.34,17.98.08,27.24-8.09,8.09-16.17,16.2-24.28,24.28-8.63,8.6-17.55,8.65-26.13.09-19.31-19.27-38.58-38.58-57.87-57.87-.85-.85-1.58-1.89-2.57-2.49-1.23-.73-2.68-1.08-4.04-1.59.28,1.51.05,3.42.9,4.45,9.48,11.5,19.12,22.86,28.71,34.26,11.99,14.25,24.06,28.44,35.94,42.79,8.84,10.68,20.34,15.41,33.88,15.83,9.44.29,18.91-.04,28.31.7,10.74.85,19.79,5.84,27.25,13.57,3.7,3.83,7.28,7.77,10.78,11.77,2.91,3.33,2.87,6.71.15,9.21-2.6,2.38-6.18,2.04-9.18-1.04-2.59-2.67-5.13-5.41-7.54-8.25-8-9.45-18.15-13.76-30.52-13.72-10.09.03-20.29.16-30.24-1.23-12.46-1.74-22.97-7.92-31.2-17.72-21.12-25.18-42.34-50.27-63.42-75.48C4.41,78.65,2.35,74.92,0,71.43c0-2.13,0-4.26,0-6.39Z"/>
      <path class="cls-1" d="M371.37,406.79c-1.92-.41-3.84-.8-5.75-1.25-6.17-1.45-11.16-4.8-15.38-9.44-38.17-41.9-76.35-83.79-114.52-125.69-1.16-1.27-2.38-2.54-3.28-4-1.69-2.73-1.3-5.48,1.04-7.58,2.33-2.1,5.09-2.17,7.67-.29,1.16.85,2.13,2,3.11,3.08,38.18,41.89,76.47,83.69,114.44,125.76,8.19,9.08,20.28,7.68,27.34,2.53,8.59-6.27,12.07-21.79,1.52-31.3-43.01-38.73-85.68-77.84-128.47-116.81-1.18-1.07-2.42-2.12-3.35-3.39-1.89-2.57-1.77-5.33.34-7.66,2.12-2.35,4.81-2.73,7.58-1.03,1.01.62,1.91,1.44,2.79,2.24,43.2,39.32,86.39,78.64,129.58,117.97,10.55,9.61,13.01,21.4,8.37,34.51-4.54,12.8-14.07,19.88-27.55,21.64-1.04.14-2.05.47-3.07.71h-2.4Z"/>
    </g>
  </g>
</svg>