<?xml version="1.0" encoding="UTF-8"?>
<svg id="Capa_2" data-name="Capa 2" xmlns="http://www.w3.org/2000/svg" viewBox="0 0 391.34 374.47">
  <defs>
    <style>
      .cls-1 {
        fill: #4a5942;
        stroke-width: 0px;
      }
    </style>
  </defs>
  <g id="Capa_1-2" data-name="Capa 1">
    <g>
      <path class="cls-1" d="M154.67,269.45c-29.43,0-53-19.73-58.63-49.09-9.18-47.84-18.95-96.39-28.4-143.34-3.82-18.98-7.64-37.97-11.43-56.95-.17-.86-.4-1.66-.65-2.52-.11-.4-.24-.82-.36-1.28l-.6-2.22h-14.31c-2.48,0-4.96,0-7.44,0-2.12,0-4.24,0-6.36,0-6.16,0-12.53,0-18.76-.23-2.99-.11-4.54-2.64-4.72-4.95-.19-2.5,1.63-4.79,4.33-5.45.98-.24,2.04-.36,3.07-.36,9.1-.02,18.2-.03,27.29-.03,6.7,0,13.39,0,20.09.03,4.8.01,6.38,1.32,7.36,6.09,2.05,9.97,4.06,19.95,6.09,30.07l3.01,14.95h109.21c62.31,0,129.28,0,196.74-.07,4.07,0,6.48,1.17,8.14,4v5.13c-.31,2.13-.63,4.27-.95,6.4-.71,4.74-1.45,9.64-2.06,14.5-1.2,9.49-2.35,18.98-3.5,28.47-2.11,17.38-4.3,35.35-6.71,52.97-3.01,21.98-18.88,35.64-41.42,35.65-25.91.02-51.82.03-77.73.03H104.48s.38,3.33.38,3.33c2.35,20.61,6.43,39.94,30.17,49.96,7.06,2.98,14.83,3.63,20.1,3.65,36.54.14,72.72.17,115.81.17h45.19c9.79,0,19.57,0,29.36,0,1.54,0,3.32.06,4.9.47,2.52.66,3.91,2.73,3.7,5.53-.19,2.49-1.94,4.4-4.37,4.76-1.3.19-2.74.19-4.02.19h-2.96c-17.97,0-35.94-.03-53.91-.06-17.97-.03-35.95-.06-53.92-.06-31.04,0-56.36.09-79.69.29h-.54ZM101.46,190.25h124.47c35.84,0,71.67,0,107.51,0,17.69,0,29.03-10.28,31.11-28.2,1.89-16.24,3.99-32.73,6.02-48.69.94-7.37,1.88-14.75,2.8-22.12.63-5.03,1.24-10.06,1.86-15.16l1.31-10.74H76.46l25,124.92Z"/>
      <path class="cls-1" d="M144.56,371.47c-21.61,0-39.31-17.68-39.44-39.42-.06-10.52,3.97-20.43,11.36-27.9,7.42-7.5,17.35-11.66,27.96-11.71h.19c21.71,0,39.44,17.64,39.53,39.32.09,21.8-17.59,39.62-39.41,39.72h-.18ZM144.52,303.46c-7.6.02-14.74,3.02-20.11,8.44-5.37,5.42-8.31,12.59-8.27,20.18.08,15.46,12.78,28.15,28.29,28.29h.26c15.59,0,28.32-12.75,28.38-28.43.03-7.52-2.93-14.65-8.32-20.06-5.41-5.43-12.57-8.43-20.14-8.43h-.08Z"/>
      <path class="cls-1" d="M314.75,371.47c-21.72,0-39.46-17.7-39.56-39.45-.1-21.72,17.6-39.48,39.45-39.59h.2c21.64,0,39.3,17.65,39.39,39.36.04,10.53-4.04,20.46-11.5,27.98-7.45,7.51-17.34,11.67-27.85,11.7h-.12ZM314.63,303.45c-7.61.03-14.78,3.08-20.19,8.6-5.37,5.47-8.26,12.61-8.14,20.11.24,15.48,12.97,28.14,28.38,28.22h.15c7.52,0,14.62-2.97,20-8.36,5.41-5.41,8.38-12.57,8.37-20.14-.02-15.67-12.79-28.43-28.46-28.43h-.1Z"/>
    </g>
  </g>
</svg>