<?xml version="1.0" encoding="UTF-8"?>
<svg id="Capa_2" data-name="Capa 2" xmlns="http://www.w3.org/2000/svg" viewBox="0 0 349.53 350.15">
  <defs>
    <style>
      .cls-1 {
        fill: #edd3c8;
        stroke-width: 0px;
      }
    </style>
  </defs>
  <g id="icon">
    <path class="cls-1" d="M272.21,350.15c-2.49-.52-4.97-1.02-7.38-1.5-6.29-1.25-12.22-2.44-17.96-4.04-15.4-4.3-31.16-11.26-49.6-21.91-43.25-24.99-82.67-58.12-120.52-101.31-24.49-27.94-43.29-55.48-57.48-84.19C8.71,115.85,2.81,97.65.69,79.94c-1.64-13.73-.41-23.51,3.99-31.71,1.52-2.83,3.5-5.55,5.73-7.85,5.71-5.88,11.67-11.8,17.43-17.53,5.21-5.18,10.6-10.53,15.86-15.91C49.32,1.2,55.67,0,60.01,0c6.41,0,12.79,2.63,17.49,7.21,17.92,17.46,35.69,35.4,50.71,50.65,4.77,4.85,7.33,10.9,7.2,17.05-.12,5.56-2.39,10.56-6.56,14.45-1.65,1.54-4.14,3.03-6.82,4.09-14.95,5.9-24.94,15.06-30.52,28-4.18,9.69-4.89,19.89-2.1,30.31,5.37,20.11,16.26,38.73,34.26,58.58,17.2,18.97,35.17,32.86,54.91,42.47,8.25,4.02,18.03,8.3,29.53,8.3,1.96,0,3.93-.13,5.86-.38,19.3-2.52,33.21-12.77,40.2-29.63,2.68-6.47,5.19-11,9.38-13.62,3.7-2.32,7.8-3.54,11.85-3.54,5.67,0,11.04,2.31,15.52,6.68,19.09,18.59,36.16,35.66,52.18,52.17,8.82,9.1,8.53,23.55-.66,32.9-7.04,7.16-14.3,14.4-21.33,21.39-4.26,4.24-8.52,8.49-12.77,12.75-5.41,5.43-12.14,8.53-21.18,9.75-1.09.15-2.04.37-2.83.58h-12.13Z"/>
  </g>
</svg>