<?xml version="1.0" encoding="UTF-8"?>
<svg id="Capa_2" data-name="Capa 2" xmlns="http://www.w3.org/2000/svg" viewBox="0 0 401.67 402.07">
  <defs>
    <style>
      .cls-1 {
        fill: #edd3c8;
        stroke-width: 0px;
      }
    </style>
  </defs>
  <g id="icon">
    <path class="cls-1" d="M296.83,24.36C271.77,10.74,245.04,2.8,216.59.65c-1.02-.08-2.01-.43-3.01-.65h-25.14c-7.76,1.05-15.55,1.91-23.28,3.17C86.05,16.03,18.86,81.7,3.75,160.45c-8.77,45.69-2.03,88.94,19.07,130.19.85,1.66,1.17,4.02.77,5.85-7.43,34.36-15.01,68.7-22.55,103.04-.14.63-.19,1.27-.37,2.55,7.49-1.68,14.67-3.27,21.84-4.9,28.29-6.44,56.57-12.93,84.88-19.24,1.94-.43,4.43-.05,6.25.82,107.01,51.33,235.45-.69,276.15-111.93,33.58-91.79-6.09-195.27-92.96-242.47ZM272.94,351.08c-52.28,23.61-104,21.53-154.75-5.27-1.85-.98-4.5-1.4-6.53-.95-22.46,4.91-44.88,10.05-67.31,15.12-.62.14-1.24.25-2.55.52,3.02-13.78,5.9-26.91,8.79-40.04,2.14-9.7,4.43-19.37,6.32-29.11.37-1.92-.23-4.43-1.24-6.16-11.81-20.36-19.94-41.98-22.93-65.41-4.58-35.96,1.92-69.94,19.77-101.36,25.45-44.79,63.79-72.79,114.12-83.51,91.32-19.46,182.63,41.29,200.64,132.95,14.67,74.69-24.76,151.81-94.34,183.24ZM291.48,236.98c-3.21-1.45-6.32-3.14-9.49-4.68-8.71-4.2-17.35-8.55-26.17-12.51-6.49-2.92-8.07-2.19-12.3,3.26-4.17,5.37-8.51,10.61-12.88,15.83-3.41,4.08-5.29,4.37-10.3,2.33-26.23-10.65-46.55-28.19-61.28-52.31-4.25-6.96-4-7.65,1.63-13.83,3.57-3.92,6.63-8.33,9.7-12.68,1.89-2.67,1.56-5.6.31-8.59-4.45-10.6-8.91-21.2-13.12-31.9-2.91-7.41-7.17-12.27-14.74-10.41-11.38,0-13.91,1.13-20.61,8.77-13.58,15.49-16.11,33.17-10.32,52.46,4.41,14.69,13.39,26.81,22.18,39.02,25.45,35.37,58.44,59.76,101.32,69.98,15.85,3.78,30.62,3.06,44.67-6.38,11.49-7.72,15.3-18.64,15.67-31.56.09-3.22-1.29-5.44-4.29-6.79Z"/>
  </g>
</svg>